PathFileType	4	(X/Y/Z)	 1.9Hzhigh3min.trc
DataRate	CameraRate	NumFrames	NumMarkers	Units	OrigDataRate	OrigDataStartFrame	OrigNumFrames
200	200	8	43	m	200	1	1000
Frame#	Time	C7			LSH			RSH			MAN			RASI			LASI			HIPR			HIPL			RPSI			LPSI			COX			RTHI1			RTHI2			RTHI3			RTHI4			RLKN			RMKN			RSHA1			RSHA2			RSHA3			RSHA4			RLMAL			RMMAL			RHEEL			RMET5			RMET1			RTOE			LTHI1			LTHI2			LTHI3			LTHI4			LLKN			LMKN			LSHA1			LSHA2			LSHA3			LSHA4			LLMAL			LMMAL			LHEEL			LMET5			LMET1			LTOE			
		X1	Y1	Z1	X2	Y2	Z2	X3	Y3	Z3	X4	Y4	Z4	X5	Y5	Z5	X6	Y6	Z6	X7	Y7	Z7	X8	Y8	Z8	X9	Y9	Z9	X10	Y10	Z10	X11	Y11	Z11	X12	Y12	Z12	X13	Y13	Z13	X14	Y14	Z14	X15	Y15	Z15	X16	Y16	Z16	X17	Y17	Z17	X18	Y18	Z18	X19	Y19	Z19	X20	Y20	Z20	X21	Y21	Z21	X22	Y22	Z22	X23	Y23	Z23	X24	Y24	Z24	X25	Y25	Z25	X26	Y26	Z26	X27	Y27	Z27	X28	Y28	Z28	X29	Y29	Z29	X30	Y30	Z30	X31	Y31	Z31	X32	Y32	Z32	X33	Y33	Z33	X34	Y34	Z34	X35	Y35	Z35	X36	Y36	Z36	X37	Y37	Z37	X38	Y38	Z38	X39	Y39	Z39	X40	Y40	Z40	X41	Y41	Z41	X42	Y42	Z42	X43	Y43	Z43	
1	0.0050	-0.274428	1.616437	-0.578610	-0.197271	1.594421	-0.775142	-0.181736	1.585525	-0.387450	-0.135019	1.556387	-0.584605	-0.114655	1.104053	-0.461410	-0.121983	1.107039	-0.704675	-0.192381	1.160716	-0.420053	-0.195161	1.147969	-0.737227	-0.292870	1.155789	-0.520076	-0.298099	1.151606	-0.617580	-0.299694	1.152344	-0.568444	-0.214307	0.844845	-0.391987	-0.204554	0.785287	-0.394694	-0.140299	0.792109	-0.390602	-0.141318	0.853771	-0.387466	-0.195511	0.587429	-0.410882	-0.174054	0.563381	-0.526781	-0.286939	0.413839	-0.391158	-0.302802	0.374945	-0.399481	-0.235204	0.397292	-0.394113	-0.243871	0.358834	-0.396826	-0.341025	0.197631	-0.420078	-0.308981	0.196834	-0.501586	-0.386697	0.203556	-0.478740	-0.266956	0.090728	-0.405381	-0.213681	0.094457	-0.467415	-0.195027	0.082767	-0.468126	-0.211421	0.856136	-0.769869	-0.193807	0.797534	-0.774994	-0.131631	0.810379	-0.787472	-0.141968	0.869662	-0.785648	-0.160983	0.596923	-0.774290	-0.132241	0.577963	-0.659582	-0.265138	0.422766	-0.772594	-0.278622	0.385360	-0.764688	-0.221480	0.367550	-0.778335	-0.214073	0.410298	-0.785085	-0.313764	0.211901	-0.756102	-0.266468	0.208884	-0.681851	-0.351110	0.217979	-0.689187	-0.248104	0.100965	-0.779429	-0.187197	0.102154	-0.721444	-0.166729	0.086561	-0.734588	
2	0.0100	-0.273926	1.610912	-0.578969	-0.196993	1.588101	-0.775622	-0.181231	1.579482	-0.387704	-0.134747	1.550198	-0.584954	-0.115632	1.098384	-0.461615	-0.122879	1.101033	-0.704686	-0.193384	1.155271	-0.420298	-0.195849	1.142278	-0.737575	-0.293955	1.150505	-0.520433	-0.299105	1.146265	-0.617970	-0.300707	1.147043	-0.568768	-0.214115	0.839011	-0.392464	-0.204215	0.779495	-0.395289	-0.139993	0.786489	-0.391383	-0.141202	0.848132	-0.388102	-0.194678	0.581769	-0.411567	-0.174028	0.557875	-0.527629	-0.286497	0.408410	-0.391105	-0.302546	0.369518	-0.399693	-0.234825	0.391588	-0.394833	-0.243621	0.353128	-0.397604	-0.341674	0.192392	-0.420405	-0.310299	0.191737	-0.502160	-0.387753	0.198510	-0.478404	-0.267727	0.085370	-0.406245	-0.214965	0.089119	-0.468907	-0.196282	0.077451	-0.469803	-0.211344	0.850347	-0.770090	-0.193590	0.791812	-0.775288	-0.131409	0.804892	-0.787678	-0.141907	0.864099	-0.785768	-0.159552	0.591428	-0.774697	-0.131574	0.572279	-0.659805	-0.264526	0.417675	-0.773761	-0.278261	0.380404	-0.765935	-0.221064	0.362258	-0.778815	-0.213334	0.404839	-0.785630	-0.314276	0.207096	-0.757147	-0.267838	0.204183	-0.682327	-0.352741	0.212981	-0.690825	-0.247609	0.096570	-0.779983	-0.187250	0.098062	-0.721503	-0.166666	0.082258	-0.734350	
3	0.0150	-0.273402	1.605084	-0.579323	-0.196634	1.581504	-0.776104	-0.180689	1.573181	-0.387944	-0.134471	1.543766	-0.585304	-0.116639	1.092447	-0.461780	-0.123839	1.094744	-0.704665	-0.194474	1.149547	-0.420526	-0.196640	1.136358	-0.737924	-0.295095	1.144915	-0.520758	-0.300194	1.140654	-0.618364	-0.301785	1.141437	-0.569079	-0.213877	0.832900	-0.392952	-0.203790	0.773441	-0.395900	-0.139592	0.780611	-0.392187	-0.141129	0.842220	-0.388719	-0.193705	0.575849	-0.412279	-0.173792	0.552125	-0.528470	-0.285979	0.402744	-0.391218	-0.302231	0.363928	-0.399932	-0.234410	0.385658	-0.395537	-0.243363	0.347223	-0.398415	-0.342397	0.187113	-0.420760	-0.311656	0.186438	-0.502751	-0.388858	0.193581	-0.478313	-0.268930	0.079676	-0.407135	-0.216593	0.083274	-0.470326	-0.197944	0.071567	-0.471409	-0.211228	0.844320	-0.770299	-0.193329	0.785820	-0.775504	-0.131124	0.799169	-0.787831	-0.141780	0.858272	-0.785860	-0.158020	0.585658	-0.775003	-0.130890	0.566408	-0.659938	-0.263751	0.412365	-0.774997	-0.277780	0.375228	-0.767174	-0.220529	0.356694	-0.779178	-0.212469	0.399151	-0.786037	-0.314697	0.202087	-0.758175	-0.269177	0.199264	-0.682773	-0.354240	0.207805	-0.692475	-0.247120	0.091931	-0.780510	-0.187390	0.093595	-0.721463	-0.166678	0.077524	-0.733954	
4	0.0200	-0.272875	1.599173	-0.579678	-0.196260	1.574832	-0.776586	-0.180140	1.566799	-0.388184	-0.134187	1.537249	-0.585653	-0.117662	1.086441	-0.461941	-0.124821	1.088390	-0.704644	-0.195586	1.143735	-0.420752	-0.197424	1.130342	-0.738261	-0.296250	1.139230	-0.521084	-0.301297	1.134953	-0.618749	-0.302882	1.135741	-0.569391	-0.213625	0.826713	-0.393443	-0.203348	0.767313	-0.396513	-0.139173	0.774666	-0.392997	-0.141013	0.836251	-0.389364	-0.192704	0.569855	-0.412995	-0.173515	0.546290	-0.529309	-0.285439	0.397010	-0.391349	-0.301908	0.358279	-0.400182	-0.233981	0.379664	-0.396254	-0.243103	0.341256	-0.399225	-0.343154	0.181791	-0.421133	-0.313018	0.181079	-0.503343	-0.389950	0.188640	-0.478254	-0.270249	0.073875	-0.408019	-0.218335	0.077279	-0.471727	-0.199737	0.065549	-0.472989	-0.211086	0.838211	-0.770517	-0.193032	0.779744	-0.775716	-0.130808	0.793367	-0.787972	-0.141636	0.852371	-0.785944	-0.156462	0.579818	-0.775285	-0.130217	0.560475	-0.660039	-0.262929	0.406990	-0.776241	-0.277244	0.369962	-0.768407	-0.219942	0.351059	-0.779531	-0.211550	0.393390	-0.786429	-0.315081	0.197027	-0.759205	-0.270499	0.194282	-0.683228	-0.355688	0.202605	-0.694129	-0.246676	0.087176	-0.781028	-0.187590	0.088970	-0.721388	-0.166768	0.072615	-0.733515	
5	0.0250	-0.272333	1.593015	-0.580033	-0.195825	1.567931	-0.777069	-0.179561	1.560193	-0.388420	-0.133895	1.530506	-0.586001	-0.118720	1.080216	-0.462082	-0.125863	1.081829	-0.704613	-0.196770	1.137677	-0.420969	-0.198254	1.124098	-0.738587	-0.297448	1.133270	-0.521393	-0.302464	1.129014	-0.619131	-0.304039	1.129780	-0.569699	-0.213335	0.820293	-0.393944	-0.202844	0.760964	-0.397134	-0.138688	0.768515	-0.393820	-0.140854	0.830072	-0.390040	-0.191596	0.563641	-0.413722	-0.173083	0.540227	-0.530141	-0.284850	0.391081	-0.391593	-0.301546	0.352480	-0.400466	-0.233517	0.373474	-0.396984	-0.242837	0.335113	-0.400050	-0.344005	0.176405	-0.421539	-0.314421	0.175556	-0.503940	-0.391053	0.183726	-0.478367	-0.271935	0.067788	-0.408910	-0.220447	0.071010	-0.473126	-0.201908	0.059369	-0.474612	-0.210892	0.831875	-0.770736	-0.192663	0.773441	-0.775895	-0.130420	0.787344	-0.788063	-0.141433	0.846253	-0.786011	-0.154823	0.573756	-0.775486	-0.129545	0.554376	-0.660051	-0.261964	0.401411	-0.777506	-0.276575	0.364473	-0.769630	-0.219227	0.345201	-0.779821	-0.210496	0.387432	-0.786740	-0.315378	0.191796	-0.760237	-0.271780	0.189104	-0.683683	-0.357008	0.197288	-0.695797	-0.246309	0.082145	-0.781519	-0.187931	0.083946	-0.721224	-0.167016	0.067259	-0.732950	
6	0.0300	-0.271786	1.586625	-0.580386	-0.195341	1.560823	-0.777552	-0.178958	1.553373	-0.388660	-0.133590	1.523543	-0.586338	-0.119820	1.073793	-0.462211	-0.126965	1.075079	-0.704576	-0.198020	1.131379	-0.421177	-0.199106	1.117616	-0.738891	-0.298689	1.127037	-0.521692	-0.303678	1.122834	-0.619487	-0.305257	1.123563	-0.570002	-0.213002	0.813666	-0.394453	-0.202289	0.754406	-0.397751	-0.138154	0.762181	-0.394653	-0.140581	0.823717	-0.390791	-0.190394	0.557228	-0.414449	-0.172530	0.533939	-0.530961	-0.284206	0.384966	-0.391934	-0.301199	0.346478	-0.400822	-0.233013	0.367086	-0.397743	-0.242563	0.328809	-0.400849	-0.345028	0.170941	-0.421971	-0.315900	0.169887	-0.504533	-0.392214	0.178762	-0.478660	-0.274009	0.061513	-0.409756	-0.222867	0.064738	-0.474706	-0.204366	0.053357	-0.476422	-0.210632	0.825306	-0.770983	-0.192190	0.766921	-0.776070	-0.129940	0.781109	-0.788112	-0.141173	0.839940	-0.786065	-0.153118	0.567485	-0.775616	-0.128877	0.548118	-0.659972	-0.260853	0.395624	-0.778753	-0.275739	0.358742	-0.770824	-0.218371	0.339136	-0.780082	-0.209306	0.381272	-0.787018	-0.315589	0.186413	-0.761284	-0.273013	0.183736	-0.684163	-0.358203	0.191909	-0.697487	-0.246084	0.076783	-0.781978	-0.188468	0.078487	-0.720968	-0.167500	0.061517	-0.732255	
7	0.0350	-0.271228	1.579980	-0.580744	-0.194797	1.553483	-0.778029	-0.178322	1.546318	-0.388907	-0.133275	1.516319	-0.586672	-0.120970	1.067142	-0.462329	-0.128155	1.068144	-0.704557	-0.199346	1.124797	-0.421378	-0.200014	1.110874	-0.739177	-0.299974	1.120500	-0.521980	-0.304950	1.116367	-0.619824	-0.306538	1.117046	-0.570302	-0.212635	0.806793	-0.394962	-0.201681	0.747607	-0.398345	-0.137567	0.755626	-0.395510	-0.140238	0.817151	-0.391590	-0.189095	0.550573	-0.415168	-0.171832	0.527393	-0.531759	-0.283523	0.378628	-0.392374	-0.300876	0.340248	-0.401228	-0.232481	0.360481	-0.398498	-0.242288	0.322301	-0.401608	-0.346373	0.165425	-0.422462	-0.317613	0.164100	-0.505152	-0.393668	0.173620	-0.479115	-0.276423	0.055326	-0.410426	-0.225371	0.058836	-0.476447	-0.206873	0.047851	-0.478403	-0.210303	0.818482	-0.771250	-0.191617	0.760163	-0.776232	-0.129367	0.774625	-0.788101	-0.140848	0.833394	-0.786094	-0.151340	0.560978	-0.775664	-0.128205	0.541688	-0.659789	-0.259583	0.389594	-0.779991	-0.274735	0.352747	-0.772017	-0.217353	0.332830	-0.780316	-0.207965	0.374877	-0.787249	-0.315726	0.180853	-0.762371	-0.274217	0.178122	-0.684686	-0.359269	0.186451	-0.699213	-0.246050	0.071034	-0.782389	-0.189317	0.072608	-0.720533	-0.168272	0.055631	-0.731348	
8	0.0400	-0.270656	1.573072	-0.581105	-0.194199	1.545919	-0.778496	-0.177658	1.539041	-0.389168	-0.132952	1.508850	-0.587007	-0.122166	1.060251	-0.462443	-0.129415	1.061020	-0.704550	-0.200738	1.117923	-0.421571	-0.201011	1.103904	-0.739467	-0.301297	1.113645	-0.522259	-0.306279	1.109616	-0.620137	-0.307886	1.110222	-0.570597	-0.212241	0.799664	-0.395455	-0.201024	0.740562	-0.398902	-0.136942	0.748855	-0.396377	-0.139841	0.810369	-0.392430	-0.187674	0.543682	-0.415863	-0.170993	0.520574	-0.532523	-0.282863	0.372132	-0.392857	-0.300608	0.333804	-0.401645	-0.231956	0.353672	-0.399250	-0.242050	0.315595	-0.402324	-0.348243	0.159909	-0.423073	-0.319761	0.158309	-0.505838	-0.395649	0.168178	-0.479693	-0.278896	0.049628	-0.410889	-0.227757	0.053681	-0.478187	-0.209225	0.043265	-0.480435	-0.209914	0.811414	-0.771566	-0.190944	0.753170	-0.776388	-0.128703	0.767902	-0.788016	-0.140454	0.826614	-0.786092	-0.149491	0.554233	-0.775632	-0.127627	0.535036	-0.659505	-0.258161	0.383286	-0.781179	-0.273574	0.346469	-0.773224	-0.216186	0.326277	-0.780546	-0.206481	0.368253	-0.787457	-0.315849	0.175109	-0.763511	-0.275440	0.172278	-0.685280	-0.360249	0.180906	-0.700970	-0.246274	0.064883	-0.782710	-0.190621	0.066447	-0.719814	-0.169398	0.049908	-0.730219	
